#N canvas 326 23 744 630 10;
#X obj 452 61 tgl 15 1 empty empty empty 17 7 0 10 -262144 -1 -1 1
1;
#N canvas 0 22 450 278 (subpatch) 0;
#X array scope1 1024 float 0;
#X coords 0 1 1023 -1 200 140 1 0 0;
#X restore 521 66 graph;
#X obj 410 182 tabwrite~ scope1;
#X obj 270 430 ndecoder~;
#N canvas 0 22 450 278 (subpatch) 0;
#X array scope2 1024 float 0;
#X coords 0 1 1023 -1 200 140 1 0 0;
#X restore 521 426 graph;
#X obj 410 532 tabwrite~ scope2;
#X obj 270 478 snapshot~;
#X floatatom 270 499 5 0 0 0 - - -, f 5;
#X obj 226 520 hsl 128 15 -1 1 0 0 empty empty empty -2 -8 0 10 -262144
-1 -1 1609 1;
#X obj 23 304 vsl 15 128 0 1 0 1 empty empty empty 0 -9 0 10 -262144
-1 -1 2700 1;
#X msg 23 440 attack \$1;
#X obj 51 304 vsl 15 128 0 1 0 1 empty empty empty 0 -9 0 10 -262144
-1 -1 10400 1;
#X msg 51 460 release \$1;
#X obj 78 304 vsl 15 128 -1 1 0 1 empty empty empty 0 -9 0 10 -262144
-1 -1 12700 1;
#X msg 78 480 attenuverter \$1;
#X obj 105 304 vsl 15 128 -2 2 0 1 empty empty empty 0 -9 0 10 -262144
-1 -1 3200 1;
#X msg 105 500 offset \$1;
#X obj 132 304 vsl 15 128 1 3 0 1 empty empty empty 0 -9 0 10 -262144
-1 -1 6400 1;
#X msg 132 520 scale \$1;
#X obj 452 82 metro 128;
#X obj 336 499 tgl 15 0 empty empty empty 17 7 0 10 -262144 -1 -1 0
1;
#X obj 336 478 snapshot~;
#N canvas 0 22 450 278 (subpatch) 0;
#X array scope3 1024 float 0;
#X coords 0 1 1024 -1 200 140 1;
#X restore 521 241 graph;
#X obj 410 322 tabwrite~ scope3;
#X obj 272 228 nencoder~;
#X obj 25 95 vsl 15 128 0 1 0 1 empty empty empty 0 -9 0 10 -262144
-1 -1 12700 1;
#X msg 25 231 carrier \$1;
#X obj 149 85 tgl 15 1 empty empty empty 17 7 0 10 -262144 -1 -1 1
1;
#X obj 149 105 sel 0;
#X msg 149 126 0;
#X msg 179 126 1;
#X obj 273 167 +~;
#X text 93 85 unipolar;
#X obj 273 188 /~ 2;
#X obj 273 47 osc~ 0.3;
#X connect 0 0 19 0;
#X connect 3 0 5 0;
#X connect 3 0 6 0;
#X connect 3 1 21 0;
#X connect 6 0 7 0;
#X connect 7 0 8 0;
#X connect 9 0 10 0;
#X connect 10 0 3 0;
#X connect 11 0 12 0;
#X connect 12 0 3 0;
#X connect 13 0 14 0;
#X connect 14 0 3 0;
#X connect 15 0 16 0;
#X connect 16 0 3 0;
#X connect 17 0 18 0;
#X connect 18 0 3 0;
#X connect 19 0 2 0;
#X connect 19 0 5 0;
#X connect 19 0 6 0;
#X connect 19 0 21 0;
#X connect 19 0 23 0;
#X connect 21 0 20 0;
#X connect 24 0 23 0;
#X connect 24 0 3 0;
#X connect 25 0 26 0;
#X connect 26 0 24 0;
#X connect 27 0 28 0;
#X connect 28 0 29 0;
#X connect 28 1 30 0;
#X connect 29 0 31 1;
#X connect 30 0 31 1;
#X connect 31 0 33 0;
#X connect 33 0 24 0;
#X connect 34 0 2 0;
#X connect 34 0 31 0;
