#N canvas 475 24 744 683 10;
#X obj 452 61 tgl 15 0 empty empty empty 17 7 0 10 -262144 -1 -1 1
1;
#N canvas 0 22 450 278 (subpatch) 0;
#X array scope1 1024 float 0;
#X coords 0 1 1023 -1 200 140 1 0 0;
#X restore 521 66 graph;
#X obj 410 182 tabwrite~ scope1;
#X obj 360 250 ndecoder~;
#X obj 358 105 *~;
#N canvas 0 22 450 278 (subpatch) 0;
#X array scope2 1024 float 0;
#X coords 0 1 1023 -1 200 140 1 0 0;
#X restore 521 246 graph;
#X obj 410 362 tabwrite~ scope2;
#X obj 270 298 snapshot~;
#X floatatom 270 319 5 0 0 0 - - -, f 5;
#X obj 226 350 hsl 128 15 -1 1 0 0 empty empty empty -2 -8 0 10 -262144
-1 -1 6970 1;
#X obj 23 14 vsl 15 128 0 1 0 0 empty empty empty 0 -9 0 10 -262144
-1 -1 0 1;
#X msg 23 150 attack \$1;
#X obj 51 14 vsl 15 128 0 1 0 0 empty empty empty 0 -9 0 10 -262144
-1 -1 0 1;
#X msg 51 170 release \$1;
#X obj 78 14 vsl 15 128 -1 1 0 0 empty empty empty 0 -9 0 10 -262144
-1 -1 0 1;
#X msg 78 190 attenuverter \$1;
#X obj 105 14 vsl 15 128 -2 2 0 0 empty empty empty 0 -9 0 10 -262144
-1 -1 0 1;
#X msg 105 210 offset \$1;
#X obj 132 14 vsl 15 128 1 3 0 0 empty empty empty 0 -9 0 10 -262144
-1 -1 0 1;
#X msg 132 230 scale \$1;
#X obj 23 299 print;
#X obj 452 82 metro 128;
#X obj 289 57 osc~ 8000;
#X obj 336 319 tgl 15 0 empty empty empty 17 7 0 10 -262144 -1 -1 0
1;
#X obj 336 298 snapshot~;
#X obj 373 57 osc~ 0.3;
#N canvas 0 22 450 278 (subpatch) 0;
#X array scope3 1024 float 0;
#X coords 0 1 1024 -1 200 140 1;
#X restore 521 461 graph;
#X obj 410 542 tabwrite~ scope3;
#X obj 152 448 nencoder~;
#X obj 35 375 vsl 15 128 0 1 0 0 empty empty empty 0 -9 0 10 -262144
-1 -1 12700 1;
#X msg 35 511 carrier \$1;
#X connect 0 0 21 0;
#X connect 3 0 6 0;
#X connect 3 0 7 0;
#X connect 3 1 24 0;
#X connect 4 0 2 0;
#X connect 4 0 3 0;
#X connect 7 0 8 0;
#X connect 8 0 9 0;
#X connect 10 0 11 0;
#X connect 11 0 3 0;
#X connect 11 0 20 0;
#X connect 12 0 13 0;
#X connect 13 0 3 0;
#X connect 13 0 20 0;
#X connect 14 0 15 0;
#X connect 15 0 3 0;
#X connect 16 0 17 0;
#X connect 17 0 3 0;
#X connect 18 0 19 0;
#X connect 19 0 3 0;
#X connect 21 0 2 0;
#X connect 21 0 6 0;
#X connect 21 0 7 0;
#X connect 21 0 24 0;
#X connect 21 0 27 0;
#X connect 22 0 4 0;
#X connect 24 0 23 0;
#X connect 25 0 4 1;
#X connect 25 0 28 0;
#X connect 28 0 27 0;
#X connect 29 0 30 0;
#X connect 30 0 28 0;
